HIERARCHY
ROOT Hips
{
	OFFSET 0.000000 0.000000 0.000000
	CHANNELS 6 Xposition Yposition Zposition Xrotation Yrotation Zrotation
	JOINT LeftUpLeg_virtual
	{
		OFFSET 0.000000 0.000000 0.000000
		CHANNELS 3 Xrotation Yrotation Zrotation
		JOINT LeftUpLeg
		{
			OFFSET 11.394100 -6.187798 -0.413800
			CHANNELS 3 Xrotation Yrotation Zrotation
			JOINT LeftLeg
			{
				OFFSET 0.430247 -32.302673 3.732800
				CHANNELS 3 Xrotation Yrotation Zrotation
				JOINT LeftFoot
				{
					OFFSET -0.430247 -48.264931 -6.423300
					CHANNELS 3 Xrotation Yrotation Zrotation
					JOINT LeftToeBase
					{
						OFFSET 4.230900 -16.068199 23.438400
						CHANNELS 3 Xrotation Yrotation Zrotation
						JOINT LeftToe_End
						{
							OFFSET 4.510700 0.695400 19.974600
							CHANNELS 3 Xrotation Yrotation Zrotation
							End Site
							{
								OFFSET 0 0 0
							}
						}
					}
				}
			}
		}
	}
	JOINT RightUpLeg_virtual
	{
		OFFSET 0.000000 0.000000 0.000000
		CHANNELS 3 Xrotation Yrotation Zrotation
		JOINT RightUpLeg
		{
			OFFSET -11.333700 -6.187798 -0.413800
			CHANNELS 3 Xrotation Yrotation Zrotation
			JOINT RightLeg
			{
				OFFSET -0.430392 -32.302628 3.733000
				CHANNELS 3 Xrotation Yrotation Zrotation
				JOINT RightFoot
				{
					OFFSET 0.430392 -48.264973 -6.423500
					CHANNELS 3 Xrotation Yrotation Zrotation
					JOINT RightToeBase
					{
						OFFSET -4.230900 -16.068199 23.438400
						CHANNELS 3 Xrotation Yrotation Zrotation
						JOINT RightToe_End
						{
							OFFSET -4.510700 0.695400 19.974600
							CHANNELS 3 Xrotation Yrotation Zrotation
							End Site
							{
								OFFSET 0 0 0
							}
						}
					}
				}
			}
		}
	}
	JOINT Spine_virtual
	{
		OFFSET 0.000000 0.000000 0.000000
		CHANNELS 3 Xrotation Yrotation Zrotation
		JOINT Spine
		{
			OFFSET -0.002400 12.777504 0.315300
			CHANNELS 3 Xrotation Yrotation Zrotation
			JOINT Spine1
			{
				OFFSET -0.002067 5.816869 0.032633
				CHANNELS 3 Xrotation Yrotation Zrotation
				JOINT Spine1_split
				{
					OFFSET -0.002067 5.816869 0.032633
					CHANNELS 3 Xrotation Yrotation Zrotation
					JOINT Spine2
					{
						OFFSET -0.002067 5.816869 0.032633
						CHANNELS 3 Xrotation Yrotation Zrotation
						JOINT Neck_virtual
						{
							OFFSET 0.000000 0.000000 0.000000
							CHANNELS 3 Xrotation Yrotation Zrotation
							JOINT Neck
							{
								OFFSET -0.003700 21.199493 -0.826900
								CHANNELS 3 Xrotation Yrotation Zrotation
								JOINT Head
								{
									OFFSET 0.000000 20.442200 4.834800
									CHANNELS 3 Xrotation Yrotation Zrotation
									JOINT HeadTop_End
									{
										OFFSET 0.000000 34.668396 4.968400
										CHANNELS 3 Xrotation Yrotation Zrotation
										End Site
										{
											OFFSET 0 0 0
										}
									}
								}
							}
						}
						JOINT LeftShoulder_virtual
						{
							OFFSET 0.000000 0.000000 0.000000
							CHANNELS 3 Xrotation Yrotation Zrotation
							JOINT LeftShoulder
							{
								OFFSET 3.288150 8.794197 -1.372250
								CHANNELS 3 Xrotation Yrotation Zrotation
								JOINT LeftShoulder_split
								{
									OFFSET 3.288150 8.794197 -1.372250
									CHANNELS 3 Xrotation Yrotation Zrotation
									JOINT LeftArm
									{
										OFFSET 11.953299 -2.279007 -0.146200
										CHANNELS 3 Xrotation Yrotation Zrotation
										JOINT LeftForeArm
										{
											OFFSET 18.448900 0.000000 0.000000
											CHANNELS 3 Xrotation Yrotation Zrotation
											JOINT LeftHand
											{
												OFFSET 29.527798 0.000000 0.000000
												CHANNELS 3 Xrotation Yrotation Zrotation
												End Site
												{
													OFFSET 0 0 0
												}
											}
										}
									}
								}
							}
						}
						JOINT RightShoulder_virtual
						{
							OFFSET 0.000000 0.000000 0.000000
							CHANNELS 3 Xrotation Yrotation Zrotation
							JOINT RightShoulder
							{
								OFFSET -3.249400 8.794197 -1.372250
								CHANNELS 3 Xrotation Yrotation Zrotation
								JOINT RightShoulder_split
								{
									OFFSET -3.249400 8.794197 -1.372250
									CHANNELS 3 Xrotation Yrotation Zrotation
									JOINT RightArm
									{
										OFFSET -11.953299 -2.279007 -0.146200
										CHANNELS 3 Xrotation Yrotation Zrotation
										JOINT RightForeArm
										{
											OFFSET -18.448900 0.000000 0.000000
											CHANNELS 3 Xrotation Yrotation Zrotation
											JOINT RightHand
											{
												OFFSET -29.527802 0.000000 0.000000
												CHANNELS 3 Xrotation Yrotation Zrotation
												End Site
												{
													OFFSET 0 0 0
												}
											}
										}
									}
								}
							}
						}
					}
				}
			}
		}
	}
}
MOTION
Frames: 8
Frame Time: 0.03333333
-0.270445 106.589584 -4.671017 0.000000 0.000000 0.000000 -83.066568 -7.975838 -3.005352 3.396865 20.574446 15.810256 -3.777598 6.288253 3.801137 22.552718 27.572997 -25.024092 -5.207242 -0.553520 0.814763 0.000000 0.000000 0.000000 -85.158539 -4.547944 -1.014492 1.638275 -21.205197 -10.462340 -1.058080 -4.606091 -8.412035 31.532163 -31.160375 29.750846 -13.084538 0.982303 -1.426366 0.000000 0.000000 0.000000 -83.714480 -7.717611 -3.783559 -1.240985 -2.185633 0.436688 -0.539484 -2.675665 0.727626 2.132578 3.466139 -0.532495 0.000000 0.000000 0.000000 -2.114446 -2.947582 0.463610 -13.706445 1.964297 0.170218 9.984605 -2.469761 3.729472 0.000000 0.000000 0.000000 -1.236626 -2.971272 1.178504 0.335855 3.414896 -2.641128 -2.558403 2.667132 -5.878941 41.879411 -32.778689 -47.372119 167.674164 -87.692423 167.961824 0.000000 0.000000 0.000000 -1.381888 -2.725815 0.809659 1.024631 -3.437666 13.333302 0.441208 2.635436 -0.121546 31.847799 34.649331 39.073893 173.302977 76.356406 -172.861583 0.000000 0.000000 0.000000 
-0.230325 106.697441 -4.693054 0.000000 0.000000 0.000000 -83.066309 -7.999777 -3.015630 3.293244 20.280076 15.835169 -3.528850 6.193963 3.797471 22.759184 27.482525 -25.070288 -5.026854 -0.528399 0.723835 0.000000 0.000000 0.000000 -85.167118 -4.468436 -0.959786 1.755057 -21.124998 -10.273615 -0.980124 -4.627958 -8.452637 31.212059 -31.294206 29.681837 -13.181066 1.047236 -1.555866 0.000000 0.000000 0.000000 -83.628180 -7.532693 -3.604278 -1.200981 -2.193114 0.578060 -0.412308 -2.640181 0.764751 1.959361 3.297734 -0.747688 0.000000 0.000000 0.000000 -2.083659 -2.930281 0.497171 -13.922401 2.239403 0.076572 10.161663 -2.141394 3.210446 0.000000 0.000000 0.000000 -1.015947 -2.939582 1.291711 0.169856 3.358639 -3.264140 -2.389483 3.361792 -5.116219 41.902879 -32.679863 -46.964415 164.675984 -88.278078 164.723276 0.000000 0.000000 0.000000 -1.114269 -2.652066 0.773971 1.090836 -3.260418 13.116268 0.635220 2.320709 0.096971 29.767692 34.908305 39.256785 173.667436 75.242013 -173.287828 0.000000 0.000000 0.000000 
-0.233039 106.872452 -4.692806 0.000000 0.000000 0.000000 -83.173980 -7.973345 -2.916874 3.077015 20.021663 15.907172 -3.227863 6.154155 3.721499 22.952458 27.325932 -25.162548 -4.758965 -0.492706 0.572823 0.000000 0.000000 0.000000 -85.224771 -4.268247 -0.775938 1.834957 -20.700427 -10.032920 -0.784745 -4.704045 -8.560093 30.808074 -31.548162 29.396321 -13.163794 1.125031 -1.654703 0.000000 0.000000 0.000000 -83.654333 -7.408570 -3.456805 -1.010612 -2.213898 0.784778 -0.015996 -2.611623 0.783475 1.756284 2.773464 -0.903167 0.000000 0.000000 0.000000 -1.773705 -2.922325 0.505658 -13.964207 2.507013 -0.341553 10.183746 -1.394158 2.118696 0.000000 0.000000 0.000000 -0.445708 -2.960376 1.340891 0.019520 3.390590 -4.220054 -2.318088 3.871235 -4.259052 40.469892 -32.172793 -47.281377 157.696118 -89.532701 157.600686 0.000000 0.000000 0.000000 -0.647093 -2.623679 0.697983 1.057759 -2.718311 12.796473 0.750623 2.061261 0.870414 25.884551 35.609915 39.514635 175.058063 74.143752 -174.940952 0.000000 0.000000 0.000000 
-0.268995 107.058128 -4.638123 0.000000 0.000000 0.000000 -83.366960 -7.908358 -2.727408 2.835511 19.887242 15.987448 -2.909390 6.146950 3.608128 23.001488 27.154559 -25.225384 -4.630746 -0.460737 0.441223 0.000000 0.000000 0.000000 -85.341390 -4.045718 -0.483106 1.751672 -20.084841 -9.847569 -0.491028 -4.768479 -8.690430 30.480231 -31.773343 29.039789 -13.009785 1.196984 -1.689082 0.000000 0.000000 0.000000 -83.841453 -7.405308 -3.369301 -0.678800 -2.196845 0.966997 0.652903 -2.479161 0.767550 1.504147 2.027704 -0.833491 0.000000 0.000000 0.000000 -1.177481 -2.807308 0.455519 -13.758859 2.626952 -0.966064 10.032224 -0.364746 0.623657 0.000000 0.000000 0.000000 0.445671 -2.901301 1.324930 -0.087011 3.494236 -5.289042 -2.197825 3.845525 -3.331380 38.031415 -31.492954 -47.926679 -18.997592 -89.173857 -19.153157 0.000000 0.000000 0.000000 -0.004094 -2.526665 0.578466 0.914852 -1.842771 12.427311 0.712467 2.028181 1.768791 20.613675 36.587151 40.019110 176.755406 73.192983 -177.011360 0.000000 0.000000 0.000000 
-0.324608 107.222160 -4.541553 0.000000 0.000000 0.000000 -83.600306 -7.848416 -2.467989 2.632811 19.852124 16.052155 -2.652710 6.146196 3.508552 22.754579 27.045553 -25.163904 -4.645413 -0.450105 0.372946 0.000000 0.000000 0.000000 -85.536774 -3.892808 -0.154329 1.493701 -19.492002 -9.746122 -0.217799 -4.777568 -8.820538 30.313209 -31.862382 28.715696 -12.784054 1.243755 -1.644988 0.000000 0.000000 0.000000 -84.210488 -7.544390 -3.344881 -0.215376 -2.063499 1.029186 1.620748 -2.119591 0.721801 1.312858 1.376906 -0.575291 0.000000 0.000000 0.000000 -0.303719 -2.466022 0.347392 -13.238326 2.535564 -1.592804 9.760126 0.640747 -1.054619 0.000000 0.000000 0.000000 1.587511 -2.618213 1.240826 -0.133461 3.583607 -6.256398 -1.800561 3.266173 -2.581868 35.283907 -30.899851 -48.415533 -25.089071 -88.288787 -25.260152 0.000000 0.000000 0.000000 0.821247 -2.244495 0.410638 0.684249 -0.796960 12.107918 0.397968 2.018510 2.365118 14.307941 37.415701 41.027024 178.363874 72.042240 -179.026949 0.000000 0.000000 0.000000 
-0.413166 107.348007 -4.386082 0.000000 0.000000 0.000000 -83.840429 -7.821292 -2.167400 2.479863 19.822858 16.089996 -2.491880 6.115591 3.465323 22.082538 27.068195 -24.917934 -4.622165 -0.468204 0.361040 0.000000 0.000000 0.000000 -85.698561 -3.842346 0.185263 1.192607 -19.084484 -9.689661 -0.093687 -4.718395 -8.939656 30.176592 -31.820397 28.396730 -12.518285 1.268034 -1.542063 0.000000 0.000000 0.000000 -84.644642 -7.739672 -3.357912 0.337357 -1.735726 0.935536 2.891087 -1.459483 0.652098 1.071861 0.950433 -0.339776 0.000000 0.000000 0.000000 0.864767 -1.832178 0.198441 -12.311219 2.151098 -2.129627 9.458565 1.340688 -2.702858 0.000000 0.000000 0.000000 2.931488 -2.028946 1.108287 -0.117754 3.599856 -6.904101 -1.162877 2.384994 -2.006257 32.756006 -30.799037 -48.249669 -32.894553 -88.082352 -33.055360 0.000000 0.000000 0.000000 1.873576 -1.676096 0.218341 0.396924 0.314008 11.899075 0.031330 1.989109 2.696617 7.352104 37.696757 42.766000 179.381750 70.254916 179.583842 0.000000 0.000000 0.000000 
-0.520235 107.461075 -4.301731 0.000000 0.000000 0.000000 -84.016538 -7.792804 -1.853245 2.414918 19.693742 16.086892 -2.475239 5.987540 3.496348 21.042382 27.200651 -24.577068 -4.474001 -0.514484 0.380770 0.000000 0.000000 0.000000 -85.812332 -3.858285 0.510308 1.012313 -18.929429 -9.626466 -0.155732 -4.615111 -9.048429 29.922652 -31.719583 28.037267 -12.196133 1.275796 -1.404696 0.000000 0.000000 0.000000 -85.062875 -7.923662 -3.396876 0.949920 -1.216622 0.680242 4.457729 -0.518551 0.561667 0.973539 0.733361 -0.065834 0.000000 0.000000 0.000000 2.336002 -0.920563 0.022945 -11.020065 1.552178 -2.505878 9.269511 1.564030 -4.170775 0.000000 0.000000 0.000000 4.437794 -1.155077 0.931081 -0.044573 3.466159 -7.119426 -0.522957 1.509687 -1.921012 30.813702 -31.476650 -47.058036 -43.719447 -88.358005 -43.832876 0.000000 0.000000 0.000000 3.202243 -0.822676 0.033950 0.099198 1.357397 11.854083 -0.243542 2.038489 2.856075 0.011780 37.042933 45.221002 179.749747 67.578199 178.968250 0.000000 0.000000 0.000000 
-0.628320 107.591316 -4.282738 0.000000 0.000000 0.000000 -84.115931 -7.749131 -1.572829 2.447502 19.375973 16.076565 -2.590991 5.704838 3.577985 19.844428 27.379696 -24.338138 -4.328550 -0.575590 0.432525 0.000000 0.000000 0.000000 -85.886412 -3.879141 0.770246 1.026698 -19.033072 -9.537035 -0.334770 -4.483198 -9.127354 29.499338 -31.573915 27.651075 -11.778532 1.268313 -1.280299 0.000000 0.000000 0.000000 -85.342421 -8.095592 -3.483589 1.553642 -0.548976 0.330882 6.316903 0.592846 0.458103 1.017173 0.656361 0.152220 0.000000 0.000000 0.000000 4.114890 0.186529 -0.150421 -9.461792 0.859815 -2.741734 9.334387 1.364476 -5.401733 0.000000 0.000000 0.000000 6.135172 -0.082253 0.725869 0.082919 3.215580 -6.911527 0.088866 0.828311 -2.344488 29.509392 -32.953959 -44.799989 -50.463039 -88.679734 -50.477075 0.000000 0.000000 0.000000 4.842818 0.239731 -0.121505 -0.149923 2.267029 12.022514 -0.362940 2.084318 2.974237 -7.095746 35.308352 48.090416 179.659097 64.113893 178.978946 0.000000 0.000000 0.000000 
